<?xml version="1.0" encoding="UTF-8" standalone="no"?>
<!-- Created with Inkscape (http://www.inkscape.org/) -->

<svg
   xmlns:osb="http://www.openswatchbook.org/uri/2009/osb"
   xmlns:dc="http://purl.org/dc/elements/1.1/"
   xmlns:cc="http://creativecommons.org/ns#"
   xmlns:rdf="http://www.w3.org/1999/02/22-rdf-syntax-ns#"
   xmlns:svg="http://www.w3.org/2000/svg"
   xmlns="http://www.w3.org/2000/svg"
   xmlns:xlink="http://www.w3.org/1999/xlink"
   xmlns:sodipodi="http://sodipodi.sourceforge.net/DTD/sodipodi-0.dtd"
   xmlns:inkscape="http://www.inkscape.org/namespaces/inkscape"
   version="1.1"
   id="svg10"
   width="60mm"
   height="60mm"
   viewBox="0 0 226.77161 226.77166"
   sodipodi:docname="logo-solo.svg"
   inkscape:version="0.92.4 (5da689c313, 2019-01-14)">
  <metadata
     id="metadata16">
    <rdf:RDF>
      <cc:Work
         rdf:about="">
        <dc:format>image/svg+xml</dc:format>
        <dc:type
           rdf:resource="http://purl.org/dc/dcmitype/StillImage" />
        <dc:title></dc:title>
      </cc:Work>
    </rdf:RDF>
  </metadata>
  <defs
     id="defs14">
    <linearGradient
       inkscape:collect="always"
       id="linearGradient5001">
      <stop
         style="stop-color:#9137b4;stop-opacity:1"
         offset="0"
         id="stop4997" />
      <stop
         style="stop-color:#00abdc;stop-opacity:1"
         offset="1"
         id="stop4999" />
    </linearGradient>
    <linearGradient
       id="linearGradient4771"
       osb:paint="solid">
      <stop
         style="stop-color:#000000;stop-opacity:1;"
         offset="0"
         id="stop4769" />
    </linearGradient>
    <linearGradient
       inkscape:collect="always"
       xlink:href="#linearGradient5001"
       id="linearGradient5003"
       x1="181.55527"
       y1="-121.67026"
       x2="308.01672"
       y2="-236.17026"
       gradientUnits="userSpaceOnUse"
       gradientTransform="matrix(1.0590618,0,0,1.0590618,-147.71102,279.54371)" />
  </defs>
  <sodipodi:namedview
     pagecolor="#ffffff"
     bordercolor="#666666"
     borderopacity="1"
     objecttolerance="10"
     gridtolerance="10"
     guidetolerance="10"
     inkscape:pageopacity="0"
     inkscape:pageshadow="2"
     inkscape:window-width="1600"
     inkscape:window-height="837"
     id="namedview12"
     showgrid="true"
     showguides="false"
     units="mm"
     inkscape:snap-grids="true"
     inkscape:zoom="0.5"
     inkscape:cx="149.41829"
     inkscape:cy="437.51262"
     inkscape:window-x="-8"
     inkscape:window-y="-8"
     inkscape:window-maximized="1"
     inkscape:current-layer="layer2">
    <inkscape:grid
       type="xygrid"
       id="grid5005" />
  </sodipodi:namedview>
  <g
     inkscape:groupmode="layer"
     id="layer2"
     inkscape:label="logo"
     style="display:inline;opacity:1"
     transform="translate(0,26.771656)">
    <path
       style="display:inline;opacity:1;fill:url(#linearGradient5003);fill-opacity:1;fill-rule:nonzero;stroke:none;stroke-width:0.07633758;stroke-miterlimit:4;stroke-dasharray:none"
       d="m 128.8061,178.59465 c 31.09937,-5.39317 56.8962,-25.37682 69.56632,-53.88993 9.93031,-22.34741 10.87284,-46.143799 2.5979,-65.589619 -15.7215,-36.94498 -60.04439,-52.9145701 -95.72091,-34.48836 -11.696172,6.04082 -21.220062,14.79667 -28.032772,25.77205 -8.64587,13.92864 -12.05768,33.53924 -8.35427,48.019373 2.09187,8.179216 5.64715,14.471356 11.46937,20.298526 8.02095,8.02778 17.17051,12.53014 27.835072,13.69727 23.71593,2.59541 45.00394,-12.78892 50.31759,-36.363326 1.53814,-6.82407 1.56198,-10.881973 0.097,-16.506463 -1.61733,-6.20931 -3.79369,-10.10686 -7.98273,-14.2959 -7.86038,-7.86038 -18.57821,-10.7726 -29.33497,-7.97082 -6.00137,1.56317 -10.38679,4.27497 -14.9011,9.21431 -6.775412,7.4134 -9.633692,19.52805 -6.25436,26.508803 4.65801,9.622176 18.39318,11.011216 24.87324,2.5154 1.09404,-1.43435 2.18944,-3.84214 2.43424,-5.35067 l 0.44508,-2.742783 h -7.3759 c -8.43859,0 -8.90509,-0.35462 -7.35603,-5.59178 1.36675,-4.62081 7.12371,-9.97461 11.97789,-11.13912 8.9917,-2.15707 17.55998,3.27758 20.07401,12.73244 1.88232,7.079083 -1.82309,18.008909 -8.49804,25.066709 -6.81097,7.20157 -13.73538,10.2033 -23.57811,10.22109 -12.74401,0.0231 -23.542122,-6.96879 -29.196472,-18.904846 -2.27446,-4.80126 -2.43133,-5.67424 -2.43133,-13.529563 0,-6.55703 0.37101,-9.56809 1.6931,-13.74076 6.0454,-19.07999 23.113032,-32.4736 42.964382,-33.71577 18.84608,-1.17927 37.39016,9.59051 45.56682,26.46371 4.06609,8.39069 5.07623,13.05096 4.9964,23.050853 -0.1856,23.250566 -14.10013,44.942016 -35.6774,55.617716 -8.9877,4.44683 -16.31669,6.06721 -27.41279,6.06078 -14.623692,-0.008 -24.433792,-2.89911 -35.675942,-10.51221 -12.56122,-8.50639 -21.68894,-21.1228 -26.35639,-36.43006 -2.17535,-7.134276 -1.93391,-28.189749 0.42458,-37.023699 6.81902,-25.5414 23.33719,-46.16206 45.90528,-57.3064401 13.877942,-6.85309 25.569252,-9.41454003 41.004052,-8.98358003 5.08219,0.1419 9.12951,0.14814 8.99406,0.0139 -0.83189,-0.82463997 -15.86728,-4.77595917 -21.06559,-5.53604917 -9.69297,-1.4173 -26.865602,-0.53904 -35.997382,1.841 -22.0451,5.7456992 -41.19449,18.8711993 -53.63724,36.7643493 -11.02744,15.85789 -16.08617,30.93001 -16.9102,50.38279 -1.31747,31.101919 12.9636,60.341309 38.78513,79.409569 9.43537,6.96766 25.41199,13.66747 38.04832,15.95558 7.978202,1.44465 23.366132,1.44735 31.680102,0.005 z"
       id="path4955"
       inkscape:connector-curvature="0" />
  </g>
  <g
     inkscape:groupmode="layer"
     id="layer1"
     inkscape:label="letras"
     style="display:inline"
     transform="translate(0,26.771656)" />
</svg>
